<svg xmlns="http://www.w3.org/2000/svg" width="160" height="50" viewBox="0 0 160 50">
  <g fill="none" fill-rule="evenodd">
    <path fill="#7872FF" fill-rule="nonzero" d="M0 0h160v50H0z"/>
    <path fill="#FFF" d="M22.719 17.516c2.062 0 3.677.804 4.843 2.414 1.167 1.61 1.75 3.815 1.75 6.617 0 2.885-.601 5.12-1.804 6.703-1.203 1.583-2.841 2.375-4.914 2.375-2.052 0-3.662-.745-4.828-2.234h-.328l-.797 1.922H13V11h4.766v5.656c0 .719-.063 1.87-.188 3.453h.188c1.114-1.729 2.765-2.593 4.953-2.593zm-1.532 3.812c-1.177 0-2.036.362-2.578 1.086-.541.724-.823 1.92-.843 3.586v.516c0 1.875.278 3.218.836 4.03.557.813 1.44 1.22 2.648 1.22.98 0 1.758-.45 2.336-1.352.578-.901.867-2.21.867-3.93 0-1.718-.292-3.007-.875-3.867-.583-.86-1.38-1.289-2.39-1.289zm24.438 13.985l-.64-2.235h-.25c-.511.813-1.235 1.44-2.172 1.883-.938.443-2.006.664-3.204.664-2.052 0-3.599-.55-4.64-1.648-1.042-1.1-1.563-2.68-1.563-4.743v-11.39h4.766v10.203c0 1.26.224 2.206.672 2.836.448.63 1.161.945 2.14.945 1.334 0 2.297-.445 2.891-1.336.594-.89.89-2.367.89-4.43v-8.218h4.766v17.468h-3.656zm15.75.312c-5.438 0-8.156-2.984-8.156-8.953 0-2.969.74-5.237 2.218-6.805 1.48-1.568 3.6-2.351 6.36-2.351 2.02 0 3.833.395 5.437 1.187l-1.406 3.688a24.05 24.05 0 0 0-2.094-.743 6.746 6.746 0 0 0-1.937-.289c-2.48 0-3.719 1.76-3.719 5.282 0 3.416 1.24 5.125 3.719 5.125.917 0 1.765-.123 2.547-.368.781-.244 1.562-.627 2.344-1.148v4.078c-.771.49-1.55.828-2.336 1.016-.787.187-1.78.281-2.977.281zm13.938-9.813l2.078-2.656 4.89-5.312h5.375l-6.937 7.578 7.36 9.89h-5.5l-5.032-7.078-2.047 1.641v5.438h-4.766V11H75.5v10.844l-.25 3.968h.063zm22.5-4.906c-1.01 0-1.803.32-2.376.961-.572.64-.9 1.55-.984 2.727h6.688c-.021-1.177-.328-2.086-.922-2.727-.594-.64-1.396-.96-2.406-.96zm.671 14.719c-2.812 0-5.01-.776-6.593-2.328-1.584-1.552-2.375-3.75-2.375-6.594 0-2.927.731-5.19 2.195-6.789 1.463-1.599 3.487-2.398 6.07-2.398 2.469 0 4.39.703 5.766 2.109 1.375 1.406 2.062 3.349 2.062 5.828v2.313H94.344c.052 1.354.453 2.411 1.203 3.172.75.76 1.802 1.14 3.156 1.14 1.052 0 2.047-.11 2.984-.328.938-.219 1.917-.568 2.938-1.047v3.688a11.19 11.19 0 0 1-2.672.93c-.948.202-2.104.304-3.469.304zm18.36-3.797c.833 0 1.833-.182 3-.547v3.547c-1.188.531-2.646.797-4.375.797-1.907 0-3.295-.482-4.164-1.445-.87-.964-1.305-2.41-1.305-4.336v-8.422h-2.281v-2.016l2.625-1.593 1.375-3.688h3.047v3.719h4.89v3.578h-4.89v8.422c0 .677.19 1.177.57 1.5.38.323.883.484 1.508.484zm6.562 2.266c0-1.021.417-1.532 1.25-1.532.854 0 1.281.51 1.281 1.532 0 1.02-.427 1.531-1.28 1.531-.834 0-1.25-.51-1.25-1.531zM129.062 43c-.833 0-1.536-.13-2.109-.39v-1.344c.719.208 1.39.312 2.016.312 1.573 0 2.36-.917 2.36-2.75v-20.5h1.546V38.61c0 1.407-.33 2.49-.992 3.25-.662.76-1.602 1.141-2.82 1.141zm2.047-29.39c0-1 .328-1.5.985-1.5.323 0 .575.13.758.39.182.26.273.63.273 1.11 0 .468-.091.838-.273 1.109a.865.865 0 0 1-.758.406c-.657 0-.985-.505-.985-1.516zm17.985 17.28c0 1.521-.578 2.69-1.735 3.508-1.156.818-2.796 1.227-4.922 1.227-2.27 0-4.072-.349-5.406-1.047v-1.672a11.932 11.932 0 0 0 5.406 1.282c1.678 0 2.951-.28 3.82-.836.87-.558 1.305-1.3 1.305-2.227 0-.854-.346-1.573-1.039-2.156-.692-.584-1.83-1.156-3.414-1.719-1.698-.615-2.89-1.143-3.578-1.586-.687-.443-1.205-.943-1.554-1.5-.35-.557-.524-1.237-.524-2.039 0-1.27.534-2.276 1.602-3.016 1.067-.74 2.56-1.109 4.476-1.109 1.834 0 3.573.344 5.219 1.031l-.578 1.407c-1.667-.688-3.214-1.032-4.64-1.032-1.386 0-2.485.23-3.298.688-.812.458-1.218 1.093-1.218 1.906 0 .885.315 1.594.945 2.125.63.531 1.862 1.125 3.695 1.781 1.532.552 2.646 1.05 3.344 1.492.698.443 1.221.946 1.57 1.508.35.563.524 1.224.524 1.985z"/>
  </g>
</svg>
