<svg xmlns="http://www.w3.org/2000/svg" width="160" height="50" viewBox="0 0 160 50">
  <path fill="#7872FF" d="M0 0h160v50H0z"/>
  <path fill="#FFF" d="M25.563 36.313h-3.688V25.655c0-1.323-.25-2.31-.75-2.96-.5-.652-1.281-.977-2.344-.977-1.416 0-2.455.46-3.117 1.383-.661.921-.992 2.455-.992 4.601v8.61H11V19.03h2.875l.516 2.266h.187c.48-.823 1.175-1.458 2.086-1.906.912-.448 1.914-.672 3.008-.672 2.656 0 4.417.906 5.281 2.718h.25c.51-.854 1.23-1.52 2.156-2 .927-.479 1.99-.718 3.188-.718 2.062 0 3.565.52 4.508 1.562.942 1.042 1.414 2.63 1.414 4.766v11.265h-3.672V25.657c0-1.323-.253-2.31-.758-2.96-.505-.652-1.289-.977-2.352-.977-1.427 0-2.47.445-3.132 1.336-.662.89-.992 2.257-.992 4.101v9.157zm32.73-8.672c0 2.823-.724 5.026-2.172 6.609-1.447 1.583-3.463 2.375-6.046 2.375-1.615 0-3.042-.365-4.282-1.094-1.24-.729-2.192-1.776-2.86-3.14-.666-1.365-1-2.948-1-4.75 0-2.802.72-4.99 2.157-6.563 1.438-1.573 3.464-2.36 6.078-2.36 2.5 0 4.48.805 5.938 2.415 1.458 1.61 2.187 3.778 2.187 6.508zm-12.578 0c0 3.99 1.474 5.984 4.422 5.984 2.917 0 4.375-1.995 4.375-5.984 0-3.948-1.469-5.922-4.406-5.922-1.542 0-2.659.51-3.352 1.531-.692 1.02-1.039 2.484-1.039 4.39zm26.997-8.922c2.156 0 3.836.781 5.039 2.343 1.203 1.563 1.804 3.756 1.804 6.579 0 2.833-.609 5.039-1.828 6.617-1.219 1.578-2.911 2.367-5.078 2.367-2.187 0-3.885-.786-5.094-2.36h-.25l-.672 2.047h-2.75V12h3.672v5.781c0 .427-.02 1.063-.062 1.907-.042.843-.073 1.38-.094 1.609h.156c1.167-1.719 2.886-2.578 5.157-2.578zm-.954 3c-1.479 0-2.544.435-3.195 1.304-.65.87-.987 2.326-1.008 4.368v.25c0 2.104.334 3.627 1 4.57.667.943 1.756 1.414 3.266 1.414 1.302 0 2.289-.516 2.96-1.547.673-1.031 1.009-2.52 1.009-4.469 0-3.927-1.344-5.89-4.032-5.89zm28.763 5.922c0 2.823-.724 5.026-2.172 6.609-1.448 1.583-3.464 2.375-6.047 2.375-1.615 0-3.042-.365-4.281-1.094-1.24-.729-2.193-1.776-2.86-3.14-.667-1.365-1-2.948-1-4.75 0-2.802.719-4.99 2.156-6.563 1.438-1.573 3.464-2.36 6.079-2.36 2.5 0 4.479.805 5.937 2.415 1.458 1.61 2.188 3.778 2.188 6.508zm-12.579 0c0 3.99 1.474 5.984 4.422 5.984 2.917 0 4.375-1.995 4.375-5.984 0-3.948-1.468-5.922-4.406-5.922-1.542 0-2.659.51-3.352 1.531-.692 1.02-1.039 2.484-1.039 4.39zm24.606 6.015a8.93 8.93 0 0 0 2.688-.422V36c-.407.177-.93.326-1.57.445-.641.12-1.305.18-1.993.18-3.479 0-5.219-1.833-5.219-5.5v-9.313h-2.359v-1.625l2.531-1.343 1.25-3.657h2.266v3.844h4.922v2.782h-4.922v9.25c0 .885.221 1.539.664 1.96.443.422 1.023.633 1.742.633zm6.965.703c0-.76.198-1.343.594-1.75.396-.406.969-.609 1.719-.609.76 0 1.338.21 1.734.633.396.422.594.997.594 1.726 0 .74-.2 1.326-.602 1.758-.4.432-.976.649-1.726.649s-1.323-.214-1.719-.641c-.396-.427-.594-1.016-.594-1.766zM128.182 44c-.834 0-1.537-.13-2.11-.39v-1.344c.72.208 1.39.312 2.016.312 1.573 0 2.36-.917 2.36-2.75v-20.5h1.546V39.61c0 1.407-.33 2.49-.992 3.25-.661.76-1.602 1.141-2.82 1.141zm2.047-29.39c0-1 .328-1.5.984-1.5.323 0 .575.13.758.39.182.26.273.63.273 1.11 0 .468-.091.838-.273 1.109a.865.865 0 0 1-.758.406c-.656 0-.984-.505-.984-1.516zm19.355 17.28c0 1.521-.578 2.69-1.734 3.508-1.156.818-2.797 1.227-4.922 1.227-2.27 0-4.073-.349-5.406-1.047v-1.672a11.932 11.932 0 0 0 5.406 1.282c1.677 0 2.95-.28 3.82-.836.87-.558 1.305-1.3 1.305-2.227 0-.854-.346-1.573-1.039-2.156-.693-.584-1.83-1.156-3.414-1.719-1.698-.615-2.89-1.143-3.578-1.586-.688-.443-1.206-.943-1.555-1.5s-.523-1.237-.523-2.039c0-1.27.534-2.276 1.601-3.016 1.068-.74 2.56-1.109 4.477-1.109 1.833 0 3.573.344 5.219 1.031l-.579 1.407c-1.666-.688-3.213-1.032-4.64-1.032-1.386 0-2.484.23-3.297.688-.813.458-1.219 1.093-1.219 1.906 0 .885.315 1.594.946 2.125.63.531 1.862 1.125 3.695 1.781 1.531.552 2.646 1.05 3.344 1.492.698.443 1.221.946 1.57 1.508.349.563.523 1.224.523 1.985z"/>
</svg>
